<mxfile host="www.draw.io" modified="2019-11-29T14:29:47.946Z" agent="Mozilla/5.0 (Windows NT 10.0; Win64; x64) AppleWebKit/537.36 (KHTML, like Gecko) Chrome/76.0.3809.132 Safari/537.36" etag="qnxHovhPBE7OqHS9MP57" version="12.3.3" type="github" pages="1">
  <diagram id="2B4Qvtso2U0uxdgwNS5u" name="Page-1">
    <mxGraphModel dx="806" dy="373" grid="1" gridSize="10" guides="1" tooltips="1" connect="1" arrows="1" fold="1" page="1" pageScale="1" pageWidth="850" pageHeight="1100" math="0" shadow="0">
      <root>
        <mxCell id="0"/>
        <mxCell id="1" parent="0"/>
        <mxCell id="joaQKFh4C5coO7dLXBT0-1" value="API Gateway" style="rounded=0;whiteSpace=wrap;html=1;rotation=-90;" vertex="1" parent="1">
          <mxGeometry x="-100" y="200" width="380" height="50" as="geometry"/>
        </mxCell>
      </root>
    </mxGraphModel>
  </diagram>
</mxfile>
